<?xml version="1.0" encoding="UTF-8"?>
<svg id="Warstwa_1" data-name="Warstwa 1" xmlns="http://www.w3.org/2000/svg" viewBox="0 0 250 250">
  <path d="M41.82,14.28h52.91V2.91c0-.24,1.45-2.2,1.81-2.42,1.86-1.12,6.12-.24,6.12,1.89v11.9h53.44V2.38c0-3.12,7.94-3.5,7.94,1.06v10.85c15.53-1.35,32.08.62,33.88,19.29v93.38c46.65,7.33,68.4,63.26,38.06,100.27-31.89,38.92-94.88,25.27-107.41-22.98l-110.29-.03c-9.4-.86-17.12-7.7-18.28-17.17L.06,30.46C3.76,13.64,19.67,13.48,33.88,14.28V2.38c0-3.12,7.94-3.5,7.94,1.06v10.85ZM41.82,22.22v11.38c0,4.31-7.94,4.28-7.94,1.06v-11.64c-.33-.52-.73-.68-1.32-.79-2.27-.41-9.09-.2-11.66-.02-3.56.25-7.47,1.02-9.98,3.78-.47.52-2.96,4.68-2.96,4.97v27.25h182.01v-25.13c0-.2-.77-2.85-.94-3.29-3.85-9.98-16.64-7.16-24.99-7.55v11.38c0,4.31-7.94,4.28-7.94,1.06v-11.64l-53.44-.79v12.43c0,.15-1.85,1.98-2.13,2.11-1.99.92-5.81-.71-5.81-2.64v-11.9h-52.91ZM189.97,125.92v-59l-.79-.79H7.96v121.43c0,3.25,6.68,8.73,9.79,8.73h108.73c-5.15-37.49,25.67-71.73,63.49-70.37ZM184.15,134.39c-26.07.93-48.67,23.73-49.74,49.74h8.73c.15,0,1.98,1.85,2.11,2.13.92,1.98-.71,5.81-2.64,5.81h-8.2c1.27,26.42,23.6,47.92,49.74,49.74v-8.73c0-1.25,2.54-2.83,3.89-2.75s4.05,2.13,4.05,3.28v8.2c26.23-1.93,47.94-23.4,49.74-49.74h-8.2c-.24,0-2.2-1.45-2.42-1.81-1.12-1.86-.24-6.12,1.89-6.12h8.73c-1.66-26.04-23.35-48.73-49.74-49.74v8.2c0,1.92-3.83,3.55-5.81,2.64-.27-.13-2.13-1.96-2.13-2.11v-8.73Z"/>
  <path d="M31.1,141.4c4-.67,19.01-.66,23.11-.08,4.97.7,7.28,5.21,7.71,9.75s.54,18.92-1.1,22.69c-.8,1.83-3.09,3.92-4.95,4.57-2.79.98-20.15.9-23.84.51-4.51-.48-7.7-4.31-8.2-8.73s-.49-15.96.06-20.58c.44-3.76,3.4-7.49,7.21-8.13ZM31.77,149.2v21.69h21.69v-21.69h-21.69Z"/>
  <path d="M87.18,83.72c4.16-.7,17.73-.62,22.1-.13s7.68,3.34,8.21,7.66c.59,4.82.47,16.77,0,21.73-.31,3.33-2.29,6.53-5.55,7.68-2.82.99-20.1.9-23.86.53-4.38-.43-7.7-3.85-8.18-8.23-.5-4.63-.57-17.12.05-21.65.47-3.42,3.86-7.03,7.22-7.59ZM109.54,91.53h-21.69v21.69h21.69v-21.69Z"/>
  <path d="M86.65,141.39c3.08-.64,20.36-.6,23.66-.09,2.65.41,5.78,2.95,6.67,5.5.99,2.82.9,20.11.53,23.86-.4,4.12-3.43,7.67-7.69,8.19-4.66.57-16.97.5-21.71-.01-4.2-.45-7.73-4-8.2-8.2-.51-4.53-.56-17.22.05-21.65.45-3.23,3.42-6.92,6.69-7.6ZM109.54,149.2h-21.69v21.69h21.69v-21.69Z"/>
  <path d="M32.16,83.72c3.98-.67,18.48-.64,22.58-.08,3.83.53,7.25,3.7,7.73,7.61.59,4.82.47,16.77,0,21.73-.31,3.33-2.29,6.53-5.55,7.68-2.82.99-20.1.9-23.86.53-4.38-.43-7.7-3.85-8.18-8.23-.5-4.63-.57-17.12.05-21.65.47-3.42,3.86-7.03,7.22-7.59ZM54.52,91.53h-21.69v21.69h21.69v-21.69Z"/>
  <path d="M143.27,83.72c3.97-.68,18.48-.64,22.58-.08s7.28,4.24,7.72,8.15c.53,4.76.52,16.39,0,21.17-.36,3.32-2.73,6.74-5.96,7.79-2.83.92-19.68.78-23.43.43-4.28-.4-7.68-3.35-8.18-7.69s-.62-18.57.03-22.72c.53-3.4,3.91-6.48,7.24-7.05ZM165.63,91.53h-21.69v21.69h21.69v-21.69Z"/>
  <path d="M172.89,160.95c1.67-.5,3.61.11,4.61,1.52l12.69,21.17c3.35,1.62,14.25-.98,16.43,1.56,1.66,1.94,1.05,5.47-1.44,6.46-1.8.72-14.55.71-17.07.41-1.04-.12-1.86-.32-2.64-1.06l-14.82-24.86c-1-1.8.44-4.66,2.24-5.21Z"/>
</svg>