<?xml version="1.0" encoding="UTF-8"?>
<svg id="Warstwa_1" data-name="Warstwa 1" xmlns="http://www.w3.org/2000/svg" viewBox="0 0 250 250">
  <defs>
    <style>
      .cls-1 {
        fill: #fff;
      }
    </style>
  </defs>
  <path d="M250,198.73c-2.04,8.21-8.12,14.47-16.8,15.15-16.12,1.28-33.88-1.02-50.18.01-20.65,10.14-44.57,9.41-65.32-.04H52.36c-3.63,1.97-6.1,4.5-10.67,4.92-6.35.58-22.1.74-28.24-.06-6.55-.86-12.68-7.71-12.97-14.35v-98.18c-.72-3.5,3.79-7.59,4.3-9.85s-.09-5.5.23-8.07c.71-5.73,4.83-12.9,9.13-16.73,1.28-1.15,5.58-3.5,6.08-4.17.63-.85.64-2.61,1.15-3.73,1.06-2.34,3.76-4.48,6.3-4.92,4.02-.69,19.57-.65,23.72-.07,1.51.21,3.83,1.34,4.91,2.4,2.22,2.17.69,4.26,5.12,3.42-.63-6.7.69-13.48,8.51-14.18,5.45-.49,16.04-.49,21.48,0,3.38.3,6.11,2.01,7.63,5.06l1.36,3.75c3.44-6.13,6.09-13.41,9.67-19.37,9.71-16.13,26.31-9.7,42.13-10.8,3.87,1.48,3.38,6.73-.86,7.23-8.1.96-22.65-2.02-29.46,1.73-8.06,4.44-12.03,23.35-18.34,30.46-.82.92-4.81,3.45-5.82,3.45h-28.02c2.44,5.31,3.75,9.55,1.92,15.36-2.12,6.73-8.92,12.06-16.06,11.99v8.3h31.92c28.88-46.89,97.61-46.5,126.71,0h28.51v-11.96c0-5.86-5.79-13.36-10.88-15.96-8.17-4.18-26.88-4.44-32.5-9.43-4.71-4.18-10.2-19.39-13.88-25.65-2.87-4.89-5.72-7.75-11.71-8.28-2.97-.27-9.46,1.26-9.46-3.67s8.94-3.99,12.26-3.54c12.95,1.76,17.45,16.13,22.31,26.24,2.49-2.34,4.82-4.42,8.52-4.43,3.99,0,19.91,3.33,24.22,4.57,5.62,1.62,8.23,5.56,8.69,11.31.21,2.65-.56,7.5.08,9.68.42,1.42,5.86,5.4,6.32,7.83l3.33,9.12v105.47ZM92.11,64.45c-.28-1.44.73-6.26-.8-6.77l-21.65.14-.46,6.62h22.9ZM231.82,63.62c-.63-.5-1.32-.83-2.1-1.07-4.52-1.41-15.67-3.43-20.48-3.9-1.16-.11-2.37-.17-3.53,0-.64,1.25-1.04,5.82-.08,6.53l26.11,6.07c.98.12.61,0,.7-.7.19-1.45.23-5.9-.63-6.95ZM51.17,77.15v-10.5l-.73-.73h-21.44l-.73.73v10.5h22.9ZM13.4,91.8c13.24-1.54,29.34,1.15,42.88,0,9.95-1.78,11.94-14.9,2.68-19.04v7.08c0,2.11-2.57,4.3-4.67,4.59-5.57.78-22.98.7-28.71.04-4.8-.55-5.04-4.26-5.36-8.3-4.89,4.06-7.83,9.68-8.04,16.11.54.18,1.01-.46,1.21-.49ZM217.61,146.74c0-37.03-29.96-67.05-66.92-67.05s-66.92,30.02-66.92,67.05,29.96,67.05,66.92,67.05,66.92-30.02,66.92-67.05ZM48.25,99.12H14.86c-2.96,0-7.21,4.93-7.07,8.06l.34,97.81c.97,3.17,3.36,5.93,6.78,6.4,5.49.75,19.6.57,25.32.06,4.49-.4,7.65-3.58,8.04-8.06,1.26-14.3-1.01-30.42.01-44.91.72-4.56,7.28-3.19,7.28-.52v48.58h50.68c-1.01-1.22-2.72-2.11-3.91-3.17-25.44-22.8-33.12-57.09-19-88.63h-27.78v28.56c0,3.37-7.31,2.97-7.31,0v-44.19ZM242.69,114.75h-24.85l4.93,14.1c21.04,3.09,21,32.71,0,35.76-3.72,16.85-14.09,31.24-27.35,41.93h37.77c3.73,0,9.5-5.79,9.5-9.52v-82.28ZM224.66,156.25c8.37-3.1,8.46-14.86.72-19.03-.99-.13-.63.04-.72.72-.25,1.79.45,3.55.51,5.35.15,4.35-.25,8.64-.51,12.96Z"/>
  <path d="M130.95,46.98l39.36-.09c4.11,1.62,3.64,6.78-.95,7.32l-37.99-.04c-3.73-.59-4.23-6.17-.41-7.19Z"/>
  <ellipse cx="89.18" cy="82.76" rx="3.73" ry="3.74"/>
  <path class="cls-1" d="M242.69,114.75v82.28c0,3.73-5.77,9.52-9.5,9.52h-37.77c13.26-10.69,23.63-25.08,27.35-41.93,21-3.05,21.04-32.68,0-35.76l-4.93-14.1h24.85ZM238.15,191.88c0-5.72-4.62-10.35-10.33-10.35s-10.33,4.63-10.33,10.35,4.62,10.35,10.33,10.35,10.33-4.63,10.33-10.35Z"/>
  <path class="cls-1" d="M231.82,63.62c.86,1.05.83,5.5.63,6.95-.09.71.28.82-.7.7l-26.11-6.07c-.96-.72-.55-5.29.08-6.53,1.16-.18,2.36-.12,3.53,0,4.8.46,15.96,2.49,20.48,3.9.77.24,1.47.56,2.1,1.07Z"/>
  <path d="M207.45,153.48c2.15,1.97.47,6.47-.21,9-10.47,38.95-57.41,55.65-90.44,32.25-34.13-24.17-32.62-75.41,2.63-97.77,33.27-21.1,77.8-3.36,87.92,34.39.87,3.26,3.48,11.27-2.02,11.57-4.55.25-4.36-6.93-5.29-10.11-14.94-51.13-88.04-48.66-99.34,2.52-11.9,53.94,58.11,85.94,90.73,42.56,5.58-7.42,8.21-15.2,10.57-24.08,1.35-1.72,3.93-1.73,5.45-.34Z"/>
  <path d="M182.57,146.73c0,17.63-14.27,31.93-31.87,31.93s-31.87-14.3-31.87-31.93,14.27-31.93,31.87-31.93,31.87,14.3,31.87,31.93ZM175.1,146.74c0-13.5-10.93-24.45-24.4-24.45s-24.4,10.95-24.4,24.45,10.93,24.45,24.4,24.45,24.4-10.95,24.4-24.45Z"/>
</svg>