<?xml version="1.0" encoding="UTF-8"?>
<svg id="Warstwa_1" data-name="Warstwa 1" xmlns="http://www.w3.org/2000/svg" viewBox="0 0 250 250">
  <path d="M250,30.31v159.21c-1.68,7.25-5.87,12.76-12.96,15.37-1.41.52-4.87,1.57-6.18,1.57h-70.49l9.43,22.27c1.49,1.53,17.76-.65,21.69,1.08s2.96,7.55-1.29,7.64l-131.71-.13c-3.16-1.56-3.27-6.06.03-7.51,3.89-1.71,19.72.43,21.2-1.08l9.43-22.27H18.65c-1.42,0-5.05-1.12-6.53-1.7-6.43-2.53-10.64-8.69-12.12-15.23v-115.65c1.81-3.69,8.24-2.57,8.24,1.21v96.06h195.98c.88,0,2.69,3.19,2.56,4.48-.14,1.46-2.28,3.74-3.53,3.74H8.24v9.44c0,4.54,7.77,10.2,12.33,9.46h208.86c4.86-.39,8.35-2.37,10.81-6.63.5-.87.37-1.68.7-2.47.1-.23.82-.08.82-.12v-9.68h-25.92c-1.02,0-3.41-1.98-3.63-3.16-.31-1.67.86-5.06,2.66-5.06h26.89V30.79s-.69.09-.8-.14c-2.43-4.91-3.73-8.04-10.08-8.58l-213.14.07c-4.42.54-8.64,4.61-9.39,9.01-1.46,8.62.68,20.78-.1,29.91-.47,5.46-4.89,7.06-8.26,2.64V30.31c1.94-8.34,7.53-14.25,15.86-16.34l216.94-.12c8.92,1.85,15.22,7.46,17.2,16.46ZM160.85,229.19c-.79-2.21-5.83-15.45-7.1-15.89l-57.12-.1-1.62.8-6.35,15.19h72.19Z"/>
  <path d="M166.67,68.05c9.46,34.52-23.28,65.46-57.3,52.63-18.02-6.8-29.44-24.26-27.97-43.67.11-1.41,1.76-8.52,1.44-8.96-11.34,7-21.27,16.34-28.01,27.9,16.93,28.64,50.53,43.63,83.42,38.32,5.73-.93,11.13-3.03,16.82-4.07,4.23.81,4.88,5.79.95,7.78-8.47,4.28-26.63,6.07-36.09,5.56-27.99-1.52-56.69-17.52-71.18-41.65-3.44-5.73-3.72-5.52-.29-11.34,30.46-51.84,106.87-55.6,145.35-10.62,2.09,2.45,9.78,12.42,10.17,15.02s-1.41,4.81-2.69,6.94c-5.97,9.94-17.54,21.79-27.56,27.64-2.77,1.61-8.24,5.29-10.66,1.91-3.84-5.36,6.96-9.34,10.47-11.78,8.68-6.03,16.31-14.62,21.66-23.7-6.88-11.74-16.76-21.12-28.5-27.9ZM124.43,56.55c-7.17.06-16.28,1.51-23.17,3.52-5.23,1.53-6.76,1.3-8.96,6.54-15.63,37.21,33.99,66.66,59.59,36.29,8.27-9.81,11.62-28.75,3.73-39.55-1.27-1.73-5.17-2.62-7.37-3.28-7.17-2.17-16.34-3.58-23.83-3.52Z"/>
  <ellipse cx="125" cy="187.74" rx="4.05" ry="4.05"/>
</svg>