<?xml version="1.0" encoding="UTF-8"?>
<svg id="Warstwa_1" data-name="Warstwa 1" xmlns="http://www.w3.org/2000/svg" viewBox="0 0 250 250">
  <defs>
    <style>
      .cls-1 {
        fill: #fff;
        stroke: #000;
        stroke-miterlimit: 10;
        stroke-width: 8px;
      }
    </style>
  </defs>
  <path class="cls-1" d="M30.83,6.3c1.71-.51,4.01.5,5.67,1.1,19.88,7.2,45.75,46.23,50.21,66.39.38,1.74,1.45,6.75,1.02,8.18-5.14,8-13.75,7.39-17.99,16.44-11.01,23.5,17.33,57.04,35.23,69.95,12.96,9.35,40.82,22.47,53.06,5.98,3.9-5.25,4.65-12.85,12.92-12.31,20.55,1.33,62.23,30.74,70.76,49.59,1.98,4.38,3.3,6.86-.34,10.6-6.51,6.68-21.66,17.68-30.58,19.92-41.28,10.4-98.35-27.45-127.69-54.06C49.9,157.97,8.71,104.39,6.25,58.07c-1.08-20.37,6.1-31.52,18.84-46.21.81-.94,5.01-5.34,5.74-5.56Z"/>
</svg>