<?xml version="1.0" encoding="UTF-8"?>
<svg id="Warstwa_1" data-name="Warstwa 1" xmlns="http://www.w3.org/2000/svg" viewBox="0 0 250 250">
  <defs>
    <style>
      .cls-1 {
        fill: none;
        stroke: #e52421;
        stroke-linecap: round;
        stroke-miterlimit: 10;
        stroke-width: 10px;
      }
    </style>
  </defs>
  <g>
    <path d="M72.61,6.58c.86-3.91,6.74-5.5,9.86-2.69.34.31,1.83,2.53,1.83,2.69v19.25h19.49V6.58c0-.16,1.49-2.38,1.83-2.69,2.24-2.02,5.78-2.02,8.03,0,.34.31,1.83,2.53,1.83,2.69v19.25h19.49V6.58c0-.16,1.49-2.38,1.83-2.69,2.24-2.02,5.78-2.02,8.03,0,.34.31,1.83,2.53,1.83,2.69v19.25h19.49V6.58c0-.16,1.49-2.38,1.83-2.69,2.24-2.02,5.78-2.02,8.03,0,.34.31,1.83,2.53,1.83,2.69v19.25h42.64c.9,0,4.14,3.25,4.14,4.14v42.64h19.25c.16,0,2.38,1.49,2.69,1.83,2.02,2.24,2.02,5.78,0,8.03-.31.34-2.53,1.83-2.69,1.83h-19.25v19.49h19.25c.16,0,2.38,1.49,2.69,1.83,2.02,2.24,2.02,5.78,0,8.03-.31.34-2.53,1.83-2.69,1.83h-19.25v19.49h19.25c.16,0,2.38,1.49,2.69,1.83,2.02,2.24,2.02,5.78,0,8.03-.31.34-2.53,1.83-2.69,1.83h-19.25v19.49h19.25c.16,0,2.38,1.49,2.69,1.83,2.02,2.24,2.02,5.78,0,8.03-.31.34-2.53,1.83-2.69,1.83h-19.25v42.64c0,.9-3.25,4.14-4.14,4.14h-42.64v19.25c0,.16-1.49,2.38-1.83,2.69-2.24,2.02-5.78,2.02-8.03,0-.34-.31-1.83-2.53-1.83-2.69v-19.25h-19.49v19.25c0,.16-1.49,2.38-1.83,2.69-2.24,2.02-5.78,2.02-8.03,0-.34-.31-1.83-2.53-1.83-2.69v-19.25h-19.49v19.25c0,.16-1.49,2.38-1.83,2.69-2.24,2.02-5.78,2.02-8.03,0-.34-.31-1.83-2.53-1.83-2.69v-19.25h-19.49v19.25c0,.16-1.49,2.38-1.83,2.69-2.24,2.02-5.78,2.02-8.03,0-.34-.31-1.83-2.53-1.83-2.69v-19.25H29.97c-.9,0-4.14-3.25-4.14-4.14v-42.64H6.58c-.16,0-2.38-1.49-2.69-1.83-2.02-2.24-2.02-5.78,0-8.03.31-.34,2.53-1.83,2.69-1.83h19.25v-19.49H6.58c-.16,0-2.38-1.49-2.69-1.83-2.02-2.24-2.02-5.78,0-8.03.31-.34,2.53-1.83,2.69-1.83h19.25v-19.49H6.58c-.16,0-2.38-1.49-2.69-1.83-2.02-2.24-2.02-5.78,0-8.03.31-.34,2.53-1.83,2.69-1.83h19.25v-19.49H6.58c-.16,0-2.38-1.49-2.69-1.83-2.02-2.24-2.02-5.78,0-8.03.31-.34,2.53-1.83,2.69-1.83h19.25V29.97c0-.9,3.25-4.14,4.14-4.14h42.64V6.58ZM37.52,37.52v175.44h175.44V37.52H37.52Z"/>
    <path d="M141.16,160.65c-2.23,2.23-6.22,2.24-8.44,0-2.08-2.1-4.37-13.75-5.36-13.99h-27.62c-1.06.25-3.18,12.02-5.57,14.16-3.72,3.34-9.77.85-9.9-4.14,6.44-20.25,11.65-42.08,18.92-62.02,1.15-3.15,1.82-6,5.72-6.46s12.29-.99,13.84,3.24l19.92,63.41c.5,2-.06,4.36-1.51,5.81ZM103.31,134.99h20.47l-10.47-32.65-10,32.65Z"/>
    <path d="M164.55,89.83c.75.75,1.56,2.36,1.64,3.48l-.4,65.42c-2.62,5.49-10.27,4.5-11.32-1.55v-63.87c.58-4.83,6.65-6.91,10.08-3.48Z"/>
  </g>
  <line class="cls-1" x1="9.35" y1="240.65" x2="241.45" y2="8.55"/>
</svg>